<mxfile host="app.diagrams.net" modified="2021-04-24T08:30:34.587Z" agent="5.0 (Windows NT 10.0; Win64; x64) AppleWebKit/537.36 (KHTML, like Gecko) Chrome/89.0.4389.128 Safari/537.36" etag="rWpkHTh5lRuaqYlmUBF8" version="14.6.1" type="github">
  <diagram id="9zbhyyYzgiQoatVsCKRn" name="第 1 页">
    <mxGraphModel dx="1038" dy="1717" grid="1" gridSize="10" guides="1" tooltips="1" connect="1" arrows="1" fold="1" page="1" pageScale="1" pageWidth="827" pageHeight="1169" math="0" shadow="0">
      <root>
        <mxCell id="0" />
        <mxCell id="1" parent="0" />
        <mxCell id="xX8othZ4kHlr3J2vD3pG-10" style="edgeStyle=orthogonalEdgeStyle;rounded=1;orthogonalLoop=1;jettySize=auto;html=1;exitX=0.25;exitY=0;exitDx=0;exitDy=0;entryX=0.01;entryY=0.34;entryDx=0;entryDy=0;entryPerimeter=0;strokeWidth=2;" edge="1" parent="1" source="xX8othZ4kHlr3J2vD3pG-1" target="xX8othZ4kHlr3J2vD3pG-8">
          <mxGeometry relative="1" as="geometry" />
        </mxCell>
        <mxCell id="xX8othZ4kHlr3J2vD3pG-1" value="" style="image;html=1;image=img/lib/clip_art/computers/Monitor_128x128.png" vertex="1" parent="1">
          <mxGeometry x="130" y="180" width="80" height="80" as="geometry" />
        </mxCell>
        <mxCell id="xX8othZ4kHlr3J2vD3pG-3" value="&lt;font style=&quot;font-size: 15px&quot;&gt;&lt;b&gt;本地机器&lt;/b&gt;&lt;/font&gt;" style="text;html=1;strokeColor=none;fillColor=none;align=center;verticalAlign=middle;whiteSpace=wrap;rounded=0;" vertex="1" parent="1">
          <mxGeometry x="135" y="280" width="70" height="20" as="geometry" />
        </mxCell>
        <mxCell id="xX8othZ4kHlr3J2vD3pG-4" value="" style="image;html=1;image=img/lib/clip_art/networking/Cloud_Server_128x128.png" vertex="1" parent="1">
          <mxGeometry x="660" y="180" width="80" height="80" as="geometry" />
        </mxCell>
        <mxCell id="xX8othZ4kHlr3J2vD3pG-5" value="&lt;span style=&quot;font-size: 15px&quot;&gt;&lt;b&gt;云服务器&lt;/b&gt;&lt;/span&gt;" style="text;html=1;strokeColor=none;fillColor=none;align=center;verticalAlign=middle;whiteSpace=wrap;rounded=0;" vertex="1" parent="1">
          <mxGeometry x="670" y="280" width="70" height="20" as="geometry" />
        </mxCell>
        <mxCell id="xX8othZ4kHlr3J2vD3pG-12" style="edgeStyle=orthogonalEdgeStyle;rounded=1;orthogonalLoop=1;jettySize=auto;html=1;exitX=1;exitY=0.25;exitDx=0;exitDy=0;entryX=0.5;entryY=0;entryDx=0;entryDy=0;strokeWidth=2;" edge="1" parent="1" source="xX8othZ4kHlr3J2vD3pG-8" target="xX8othZ4kHlr3J2vD3pG-4">
          <mxGeometry relative="1" as="geometry" />
        </mxCell>
        <mxCell id="xX8othZ4kHlr3J2vD3pG-8" value="" style="shape=image;imageAspect=0;aspect=fixed;verticalLabelPosition=bottom;verticalAlign=top;image=https://lh3.googleusercontent.com/proxy/k0uAPR3DxcHlhafzW7EVU39JO3F2XEGfTWCz_36hYrr8gOC_1w5lKP9UWBD-RRvxeICs7AYuMeq88r0qB7C_a4x_aM7y-uVgGb7Cq3ZRwO81;" vertex="1" parent="1">
          <mxGeometry x="410" y="-50" width="80" height="80" as="geometry" />
        </mxCell>
        <mxCell id="xX8othZ4kHlr3J2vD3pG-9" value="&lt;span style=&quot;font-size: 15px&quot;&gt;&lt;b&gt;github&lt;/b&gt;&lt;/span&gt;" style="text;html=1;strokeColor=none;fillColor=none;align=center;verticalAlign=middle;whiteSpace=wrap;rounded=0;" vertex="1" parent="1">
          <mxGeometry x="415" y="-80" width="70" height="20" as="geometry" />
        </mxCell>
        <mxCell id="xX8othZ4kHlr3J2vD3pG-11" value="&lt;font style=&quot;font-size: 14px&quot;&gt;&lt;b&gt;项目托管至github&lt;/b&gt;&lt;/font&gt;" style="text;html=1;strokeColor=none;fillColor=none;align=center;verticalAlign=middle;whiteSpace=wrap;rounded=0;" vertex="1" parent="1">
          <mxGeometry x="100" y="-50" width="190" height="30" as="geometry" />
        </mxCell>
        <mxCell id="xX8othZ4kHlr3J2vD3pG-13" value="&lt;font style=&quot;font-size: 14px&quot;&gt;&lt;b&gt;向github拉取项目&lt;/b&gt;&lt;/font&gt;" style="text;html=1;strokeColor=none;fillColor=none;align=center;verticalAlign=middle;whiteSpace=wrap;rounded=0;" vertex="1" parent="1">
          <mxGeometry x="520" y="-60" width="190" height="30" as="geometry" />
        </mxCell>
      </root>
    </mxGraphModel>
  </diagram>
</mxfile>
